<?xml version="1.0" encoding="UTF-8" standalone="no"?>
<!-- Created with Inkscape (http://www.inkscape.org/) -->

<svg
   xmlns:dc="http://purl.org/dc/elements/1.1/"
   xmlns:cc="http://creativecommons.org/ns#"
   xmlns:rdf="http://www.w3.org/1999/02/22-rdf-syntax-ns#"
   xmlns:svg="http://www.w3.org/2000/svg"
   xmlns="http://www.w3.org/2000/svg"
   xmlns:sodipodi="http://sodipodi.sourceforge.net/DTD/sodipodi-0.dtd"
   xmlns:inkscape="http://www.inkscape.org/namespaces/inkscape"
   width="32"
   height="32"
   viewBox="0 0 8.4666659 8.4666659"
   version="1.1"
   id="svg8"
   sodipodi:docname="convert-wrong.svg"
   inkscape:version="0.92.1 r15371">
  <defs
     id="defs2">
    <style
       id="style4107">
      .cls-1 {
        fill: #95af28;
        fill-rule: evenodd;
      }
    </style>
  </defs>
  <sodipodi:namedview
     id="base"
     pagecolor="#ffffff"
     bordercolor="#666666"
     borderopacity="1.0"
     inkscape:pageopacity="0.0"
     inkscape:pageshadow="2"
     inkscape:zoom="7.9195959"
     inkscape:cx="41.120485"
     inkscape:cy="23.184343"
     inkscape:document-units="mm"
     inkscape:current-layer="layer1"
     showgrid="false"
     units="px"
     inkscape:window-width="1920"
     inkscape:window-height="1027"
     inkscape:window-x="-8"
     inkscape:window-y="-8"
     inkscape:window-maximized="1" />
  <metadata
     id="metadata5">
    <rdf:RDF>
      <cc:Work
         rdf:about="">
        <dc:format>image/svg+xml</dc:format>
        <dc:type
           rdf:resource="http://purl.org/dc/dcmitype/StillImage" />
        <dc:title></dc:title>
      </cc:Work>
    </rdf:RDF>
  </metadata>
  <g
     inkscape:label="Layer 1"
     inkscape:groupmode="layer"
     id="layer1"
     transform="translate(0,-288.53334)">
    <path
       style="opacity:1;vector-effect:none;fill:#f0c419;fill-opacity:1;fill-rule:nonzero;stroke:none;stroke-width:0.52899998;stroke-linecap:butt;stroke-linejoin:miter;stroke-miterlimit:4;stroke-dasharray:none;stroke-dashoffset:13.30393696;stroke-opacity:1;paint-order:stroke fill markers"
       d="m 24.40341,283.80875 -0.03772,0.35849 a 1.9520283,1.9520283 0 0 0 -1.78594,1.94372 1.9520283,1.9520283 0 0 0 0.06868,0.50439 l 0.192391,-0.54896 0.305694,0.23539 a 1.3999395,1.3999395 0 0 1 -0.01466,-0.19082 1.3999395,1.3999395 0 0 1 1.174608,-1.38111 l -0.04106,0.3901 0.990794,-0.55702 z"
       id="path4000"
       inkscape:connector-curvature="0" />
    <path
       style="opacity:1;vector-effect:none;fill:#f2664b;fill-opacity:1;fill-rule:nonzero;stroke:none;stroke-width:0.52899998;stroke-linecap:butt;stroke-linejoin:miter;stroke-miterlimit:4;stroke-dasharray:none;stroke-dashoffset:13.30393696;stroke-opacity:1;paint-order:stroke fill markers"
       d="m 24.82639,284.18282 0.429805,0.38011 -0.354663,0.19938 a 1.3999395,1.3999395 0 0 1 1.030196,1.34865 1.3999395,1.3999395 0 0 1 -0.10545,0.53134 l -0.298967,-0.23579 -0.0345,1.12884 1.084464,-0.3007 -0.304856,-0.24045 a 1.9520283,1.9520283 0 0 0 0.211396,-0.88324 1.9520283,1.9520283 0 0 0 -1.657425,-1.92814 z"
       id="path3998"
       inkscape:connector-curvature="0" />
    <path
       style="opacity:1;vector-effect:none;fill:#0b9a86;fill-opacity:1;fill-rule:nonzero;stroke:none;stroke-width:0.52899998;stroke-linecap:butt;stroke-linejoin:miter;stroke-miterlimit:4;stroke-dasharray:none;stroke-dashoffset:13.30393696;stroke-opacity:1;paint-order:stroke fill markers"
       d="m 22.840817,286.06639 -0.369703,1.05488 0.336554,-0.0973 a 1.9520283,1.9520283 0 0 0 1.724122,1.039 1.9520283,1.9520283 0 0 0 1.466959,-0.66793 l -0.505938,0.1403 0.01281,-0.41881 a 1.3999395,1.3999395 0 0 1 -0.973831,0.39435 1.3999395,1.3999395 0 0 1 -1.17861,-0.64461 l 0.382723,-0.11063 z"
       id="circle3971"
       inkscape:connector-curvature="0" />
    <path
       style="opacity:1;vector-effect:none;fill:#000080;fill-opacity:1;fill-rule:nonzero;stroke:none;stroke-width:0.52899992;stroke-linecap:butt;stroke-linejoin:miter;stroke-miterlimit:4;stroke-dasharray:none;stroke-dashoffset:13.30393696;stroke-opacity:1;paint-order:stroke fill markers"
       d="m 4.2185658,289.08355 a 3.504,3.504 0 0 0 -2.754002,1.34394 2.845605,2.845605 0 0 1 2.0174726,-0.84177 2.845605,2.845605 0 0 1 2.5688339,1.63077 l -0.5211114,0.27748 1.6460145,0.63607 0.4184512,-1.73526 -0.4678176,0.24908 a 3.504,3.504 0 0 0 -2.9078412,-1.56031 z m -1.8824048,1.27788 -1.70962161,0.51329 0.45094521,0.27852 a 3.504,3.504 0 0 0 0.1181951,3.29789 3.504,3.504 0 0 0 2.5489406,1.70103 2.845605,2.845605 0 0 1 -1.7439712,-1.31805 2.845605,2.845605 0 0 1 0.1135779,-3.04066 l 0.5022968,0.31022 z m 5.2240594,0.97339 a 2.845605,2.845605 0 0 1 -0.2797153,2.16808 2.845605,2.845605 0 0 1 -2.6967385,1.40927 l 0.020281,-0.59002 -1.3738508,1.10747 1.2935438,1.23003 0.018211,-0.5297 a 3.504,3.504 0 0 0 2.805181,-1.73811 3.504,3.504 0 0 0 0.2130878,-3.05702 z"
       id="path3885"
       inkscape:connector-curvature="0" />
    <g
       transform="matrix(0.030195,0,0,0.030195,2.7107733,285.42232)"
       id="layer1-4"
       inkscape:label="Layer 1"
       style="stroke-width:33.11806107">
      <g
         style="stroke-width:34.24271774"
         inkscape:label="Layer 1"
         id="layer1-8"
         transform="matrix(0.96715668,0,0,0.96715668,1.4987014,7.6765839)">
        <g
           style="fill:#ffffff;fill-opacity:1;stroke-width:34.24271774"
           inkscape:label="Layer 1"
           id="g4526"
           transform="matrix(0.52288732,0,0,0.52288732,-39.62429,143.1749)" />
        <path
           style="fill:#fc655c;fill-rule:evenodd;stroke-width:9.36771965"
           inkscape:connector-curvature="0"
           class="cls-1"
           d="M 20.84504,289.80652 7.2867448,276.34525 36.340286,247.14636 7.2867448,217.89919 20.84504,204.48604 49.89859,233.68492 79.436413,204.48604 92.994711,217.89919 63.456883,247.14636 92.994711,276.34525 79.436413,289.75824 49.89859,260.55936 Z"
           id="path4124" />
      </g>
    </g>
  </g>
</svg>
