<?xml version="1.0" encoding="UTF-8" standalone="no"?>
<!-- Created with Inkscape (http://www.inkscape.org/) -->

<svg
   xmlns:dc="http://purl.org/dc/elements/1.1/"
   xmlns:cc="http://creativecommons.org/ns#"
   xmlns:rdf="http://www.w3.org/1999/02/22-rdf-syntax-ns#"
   xmlns:svg="http://www.w3.org/2000/svg"
   xmlns="http://www.w3.org/2000/svg"
   xmlns:sodipodi="http://sodipodi.sourceforge.net/DTD/sodipodi-0.dtd"
   xmlns:inkscape="http://www.inkscape.org/namespaces/inkscape"
   width="40"
   height="40"
   viewBox="0 0 10.583333 10.583334"
   version="1.1"
   id="svg8"
   inkscape:version="0.92.2 (5c3e80d, 2017-08-06)"
   sodipodi:docname="edu-details.svg">
  <defs
     id="defs2" />
  <sodipodi:namedview
     id="base"
     pagecolor="#ffffff"
     bordercolor="#666666"
     borderopacity="1.0"
     inkscape:pageopacity="0.0"
     inkscape:pageshadow="2"
     inkscape:zoom="0.12374369"
     inkscape:cx="480.19607"
     inkscape:cy="812.41504"
     inkscape:document-units="mm"
     inkscape:current-layer="layer1"
     showgrid="false"
     units="px"
     inkscape:window-width="1600"
     inkscape:window-height="837"
     inkscape:window-x="-8"
     inkscape:window-y="-8"
     inkscape:window-maximized="1" />
  <metadata
     id="metadata5">
    <rdf:RDF>
      <cc:Work
         rdf:about="">
        <dc:format>image/svg+xml</dc:format>
        <dc:type
           rdf:resource="http://purl.org/dc/dcmitype/StillImage" />
        <dc:title />
      </cc:Work>
    </rdf:RDF>
  </metadata>
  <g
     inkscape:label="Layer 1"
     inkscape:groupmode="layer"
     id="layer1"
     transform="translate(0,-286.41665)"
     style="opacity:1">
    <g
       transform="matrix(0.11216624,0,0,0.11216624,-0.45246886,264.01743)"
       id="layer1-93"
       inkscape:label="Layer 1"
       style="fill:white;fill-opacity:1;stroke-width:8.91533852">
      <path
         inkscape:connector-curvature="0"
         id="path5207"
         d="m 12.643169,275.29034 c -1.457025,-0.59121 -3.4619585,-1.89458 -4.9696851,-3.2309 l -1.0399897,-0.92156 1.1699478,-0.94393 c 5.586797,-4.50679 10.576082,-12.50286 11.954212,-19.15851 0.30218,-1.45902 0.28475,-1.59159 -0.383765,-2.91295 -1.02348,-2.02251 -0.77893,-3.15145 1.06306,-4.9074 1.337735,-1.27519 3.858325,-5.20925 3.602665,-5.62288 -0.06785,-0.11089 -0.5022,-0.31635 -0.96493,-0.45846 -0.462775,-0.14212 -1.952885,-0.60685 -3.31137,-1.03289 -1.358495,-0.42559 -3.522935,-1.08482 -4.80992,-1.46499 -3.316925,-0.9792 -3.988485,-1.31535 -4.183935,-2.0943 -0.32158,-1.28137 0.7122,-1.78601 8.08386,-3.94758 0.71501,-0.20954 1.768015,-0.54064 2.33998,-0.73548 0.57201,-0.19529 3.96495,-1.2473 7.539895,-2.3388 8.919545,-2.72232 8.35687,-2.5495 12.999865,-3.99114 8.84691,-2.74682 10.22807,-3.15368 10.69624,-3.15044 0.26599,0.001 1.41964,0.30521 2.563615,0.67436 1.143985,0.36914 3.366975,1.05954 4.939915,1.53417 1.572995,0.47463 6.89643,2.11297 11.82987,3.64025 4.93344,1.52683 9.49641,2.93179 10.139885,3.12144 5.37601,1.58493 11.248135,3.4993 11.580885,3.77517 0.26298,0.2185 0.377835,0.66377 0.327115,1.26863 -0.07715,0.91948 -0.106617,0.94182 -2.15812,1.61694 -1.143975,0.37617 -3.13293,0.99941 -4.419915,1.38498 -1.286995,0.38556 -2.632475,0.80038 -2.989985,0.92182 -0.94743,0.32133 -5.882355,1.83807 -19.49976,5.99446 -11.42097,3.4855 -12.154605,3.67569 -13.259865,3.43106 -0.643465,-0.14209 -4.883475,-1.40474 -9.422165,-2.80623 l -8.25219,-2.54759 0.82457,-0.50176 c 2.95088,-1.79445 10.80434,-4.2477 17.21962,-5.37865 0.846835,-0.14949 1.81022,-0.44857 2.140835,-0.66542 1.219775,-0.7992 1.074835,-2.82459 -0.24745,-3.45851 -0.875745,-0.41985 -3.179785,-0.1239 -7.85702,1.0097 -9.43352,2.28556 -16.41114,5.77058 -19.115735,9.54737 -1.30818,1.82694 -1.474845,2.46888 -0.93522,3.60015 0.653315,1.37025 0.54569,2.70953 -0.31303,3.89473 l -0.73812,1.01919 -0.158105,6.23494 c -0.160215,6.31443 -0.541585,9.26163 -1.64824,12.73489 -0.539345,1.69266 -2.040635,4.48237 -2.916225,5.41918 -1.79429,1.91926 -4.808725,2.50671 -7.421295,1.44694 z"
         style="opacity:1;vector-effect:none;fill:white;fill-opacity:1;fill-rule:nonzero;stroke:none;stroke-width:2.3179605;stroke-linecap:butt;stroke-linejoin:miter;stroke-miterlimit:4;stroke-dasharray:9.2718436, 2.31795887;stroke-dashoffset:0;stroke-opacity:1;paint-order:stroke fill markers" />
      <path
         inkscape:connector-curvature="0"
         id="path5209"
         d="m 48.103014,266.97555 c -0.92953,-0.11684 -2.099515,-0.334 -2.59998,-0.48195 -0.50051,-0.14795 -1.31948,-0.38091 -1.81999,-0.518 -5.886245,-1.614 -11.756285,-5.90174 -13.371595,-9.76752 -0.83071,-1.98829 -0.34439,-5.29636 1.573985,-10.70653 0.35589,-1.00409 0.435445,-1.06851 1.08586,-0.88048 1.444495,0.41795 6.19979,1.88282 7.201775,2.2188 0.57202,0.19159 1.9175,0.60362 2.989985,0.91584 2.67476,0.77781 5.11033,1.54111 6.47007,2.02817 1.4275,0.51098 3.956185,0.50313 5.489795,-0.0167 0.643465,-0.21819 2.222935,-0.71044 3.509975,-1.09341 1.28694,-0.38342 2.5193,-0.79054 2.73847,-0.90475 0.21918,-0.1147 0.804205,-0.29069 1.29999,-0.39126 0.495795,-0.1001 1.369435,-0.34024 1.941445,-0.53296 3.29925,-1.11168 7.23561,-2.23176 7.596245,-2.16137 0.744875,0.14503 2.659495,6.82147 2.669095,9.3075 0.01495,3.86245 -5.858665,9.16531 -12.735325,11.49751 -3.255925,1.10415 -3.6891,1.21263 -5.9731,1.49433 -2.49988,0.30827 -5.584385,0.30539 -8.0667,-0.005 z"
         style="opacity:1;vector-effect:none;fill:white;fill-opacity:1;fill-rule:nonzero;stroke:none;stroke-width:2.3179605;stroke-linecap:butt;stroke-linejoin:miter;stroke-miterlimit:4;stroke-dasharray:9.2718436, 2.31795887;stroke-dashoffset:0;stroke-opacity:1;paint-order:stroke fill markers" />
    </g>
  </g>
  <style
     id="style3952"
     type="text/css">
	.st0{fill:#4D4D4D;}
</style>
</svg>
