<?xml version="1.0" encoding="UTF-8" standalone="no"?>
<!-- Created with Inkscape (http://www.inkscape.org/) -->

<svg
   xmlns:dc="http://purl.org/dc/elements/1.1/"
   xmlns:cc="http://creativecommons.org/ns#"
   xmlns:rdf="http://www.w3.org/1999/02/22-rdf-syntax-ns#"
   xmlns:svg="http://www.w3.org/2000/svg"
   xmlns="http://www.w3.org/2000/svg"
   xmlns:sodipodi="http://sodipodi.sourceforge.net/DTD/sodipodi-0.dtd"
   xmlns:inkscape="http://www.inkscape.org/namespaces/inkscape"
   width="40"
   height="40"
   viewBox="0 0 10.583333 10.583334"
   version="1.1"
   id="svg8"
   inkscape:version="0.92.2 (5c3e80d, 2017-08-06)"
   sodipodi:docname="exp-details.svg">
  <defs
     id="defs2" />
  <sodipodi:namedview
     id="base"
     pagecolor="#ffffff"
     bordercolor="#666666"
     borderopacity="1.0"
     inkscape:pageopacity="0.0"
     inkscape:pageshadow="2"
     inkscape:zoom="0.061871844"
     inkscape:cx="-4682.717"
     inkscape:cy="1222.2583"
     inkscape:document-units="mm"
     inkscape:current-layer="layer1"
     showgrid="false"
     units="px"
     inkscape:window-width="1600"
     inkscape:window-height="837"
     inkscape:window-x="-8"
     inkscape:window-y="-8"
     inkscape:window-maximized="1" />
  <metadata
     id="metadata5">
    <rdf:RDF>
      <cc:Work
         rdf:about="">
        <dc:format>image/svg+xml</dc:format>
        <dc:type
           rdf:resource="http://purl.org/dc/dcmitype/StillImage" />
        <dc:title />
      </cc:Work>
    </rdf:RDF>
  </metadata>
  <g
     inkscape:label="Layer 1"
     inkscape:groupmode="layer"
     id="layer1"
     transform="translate(0,-286.41665)"
     style="opacity:1">
    <g
       transform="matrix(0.11195371,0,0,0.11195371,-0.32058008,264.06721)"
       id="layer1-54"
       inkscape:label="Layer 1"
       style="stroke-width:8.93226337;fill:white;fill-opacity:1">
      <path
         inkscape:connector-curvature="0"
         id="path5222"
         d="m 46.820123,289.74726 c -1.223618,-0.93547 -4.044511,-3.75317 -6.268597,-6.26169 -2.224085,-2.50895 -6.232491,-6.74367 -8.907526,-9.41133 -4.648284,-4.63528 -4.86374,-4.91356 -4.86374,-6.27663 0,-4.28925 -2.021406,-10.19263 -5.672057,-16.56482 -4.726615,-8.24985 -5.744059,-10.59525 -6.274982,-14.46513 -0.634563,-4.62452 0.693106,-9.15467 4.651403,-15.86925 5.172524,-8.77484 12.815945,-14.43458 22.817682,-16.8957 10.104532,-2.48639 18.435422,-1.8367 25.928902,2.02146 2.970819,1.52989 8.197487,6.57594 10.006606,9.66151 3.287661,5.60672 4.39553,12.87267 2.909523,19.08172 -1.251779,5.23014 -1.149681,5.89254 1.949368,12.65146 1.040214,2.26891 1.891249,4.58904 1.891249,5.1559 0,1.22987 -1.205793,2.88999 -2.099056,2.88999 -1.081146,0 -1.53155,0.90674 -1.280875,2.57836 0.19802,1.32042 0.108335,1.65643 -0.665002,2.49056 -0.601583,0.64938 -0.893907,1.36717 -0.893907,2.19547 0,0.67744 -0.317376,1.66032 -0.706048,2.18685 -0.388365,0.52575 -0.94213,2.19012 -1.230614,3.69944 -0.598525,3.13036 -1.111181,4.26834 -2.529682,5.61575 -2.284095,2.16983 -6.256668,2.82081 -11.730612,1.92319 -2.220449,-0.36427 -3.530786,-0.4321 -3.954683,-0.20524 -0.785743,0.42038 -2.46341,3.23236 -5.879523,9.85415 -1.451358,2.81355 -2.815795,5.23181 -3.032136,5.37443 -0.885835,0.58395 -2.056427,0.18161 -4.165693,-1.43045 z m 0.481456,-32.39664 c 0.590284,-0.53424 0.645092,-1.29199 0.645092,-8.91737 0,-6.97163 -0.08958,-8.46176 -0.549132,-9.1175 -0.542014,-0.77401 -0.661345,-0.78417 -9.172116,-0.78417 -10.610627,0 -10.112306,-0.2343 -9.958951,4.68732 l 0.101154,3.2503 1.353718,0.11233 c 1.184311,0.0982 1.493397,-0.0503 2.469951,-1.1801 2.704935,-3.12901 7.712042,-1.29015 7.712042,2.83253 0,2.48627 -1.91017,4.41125 -4.374518,4.40838 -1.345086,-10e-4 -3.237298,-1.04544 -3.799735,-2.09651 -0.58612,-1.09503 -2.717454,-1.00968 -3.236671,0.13014 -0.525238,1.15278 -0.06383,6.0353 0.636564,6.73572 0.43418,0.43402 1.977773,0.52378 9.025556,0.52378 7.415945,0 8.584193,-0.0727 9.146919,-0.58393 z m 12.286648,-0.85116 c 0,-1.17598 -0.217297,-1.63975 -1.20466,-2.57083 -3.921211,-3.69808 0.761048,-9.73202 5.370995,-6.92137 2.486494,1.51625 2.759431,4.85291 0.566074,6.92137 -0.987363,0.93108 -1.20466,1.39485 -1.20466,2.57083 v 1.43478 h 3.50775 c 4.863794,0 4.606057,0.55579 4.606057,-9.93062 v -8.36227 l -0.951935,-0.74892 c -0.918232,-0.7223 -1.24439,-0.74485 -9.203849,-0.64308 -8.187719,0.10414 -8.25719,0.1132 -8.925746,0.93878 -0.620294,0.76653 -0.673832,1.48827 -0.673832,9.08396 0,10.15568 -0.243173,9.66215 4.762448,9.66215 h 3.351358 z M 47.446479,234.4956 c 0.398445,-0.54558 0.500192,-2.38585 0.500192,-9.04499 0,-10.4218 0.232951,-9.92506 -4.586057,-9.77642 l -3.351357,0.10295 -0.108009,1.29978 c -0.09237,1.11038 0.07781,1.47055 1.168291,2.46963 2.280218,2.08973 1.98212,5.38072 -0.636318,7.02524 -2.759141,1.73264 -6.611852,-0.40037 -6.584892,-3.64569 0.01474,-1.7589 0.491668,-2.73652 1.858454,-3.80842 0.812654,-0.63734 0.969912,-1.0044 0.881931,-2.05808 l -0.107166,-1.28246 -2.998574,-0.10336 c -3.506492,-0.1213 -4.412398,0.0487 -4.771182,0.89454 -0.357431,0.8433 -0.539085,15.66764 -0.207269,16.91218 0.470223,1.76316 1.214329,1.8939 10.210821,1.79269 7.681799,-0.0859 8.264288,-0.13866 8.731135,-0.77759 z m 23.090813,-0.21016 c 0.636341,-0.63643 0.707003,-1.09069 0.617371,-3.96861 l -0.101154,-3.25029 -1.353712,-0.11233 c -1.184317,-0.0982 -1.493395,0.0503 -2.469959,1.18013 -0.90224,1.04364 -1.426154,1.32608 -2.732915,1.47349 -2.266929,0.25548 -3.716082,-0.56182 -4.620082,-2.60544 -0.681487,-1.54061 -0.685416,-1.65971 -0.104734,-3.17981 0.70307,-1.84096 2.206487,-2.92794 4.049689,-2.92794 1.415797,0 3.297934,1.02549 3.880673,2.1143 0.32396,0.60531 0.670239,0.72375 1.862121,0.63636 l 1.464161,-0.106 -0.105463,-3.35114 c -0.07669,-2.43334 -0.257214,-3.52072 -0.659573,-3.96892 -0.498831,-0.55546 -1.406878,-0.61726 -9.087826,-0.61726 -7.819201,0 -8.582487,0.0531 -9.117451,0.64513 -0.508903,0.56246 -0.583836,1.72457 -0.583836,9.05599 0,7.33155 0.0751,8.49396 0.583836,9.05641 0.535162,0.59135 1.299956,0.64513 9.172134,0.64513 8.169969,0 8.623283,-0.0347 9.306896,-0.71872 z"
         style="fill:white;stroke-width:3.15107155;fill-opacity:1" />
    </g>
  </g>
  <style
     id="style3952"
     type="text/css">
	.st0{fill:#4D4D4D;}
</style>
</svg>
