<?xml version="1.0" encoding="UTF-8" standalone="no"?>
<!-- Created with Inkscape (http://www.inkscape.org/) -->

<svg
   xmlns:dc="http://purl.org/dc/elements/1.1/"
   xmlns:cc="http://creativecommons.org/ns#"
   xmlns:rdf="http://www.w3.org/1999/02/22-rdf-syntax-ns#"
   xmlns:svg="http://www.w3.org/2000/svg"
   xmlns="http://www.w3.org/2000/svg"
   xmlns:sodipodi="http://sodipodi.sourceforge.net/DTD/sodipodi-0.dtd"
   xmlns:inkscape="http://www.inkscape.org/namespaces/inkscape"
   width="40"
   height="40"
   viewBox="0 0 10.583333 10.583334"
   version="1.1"
   id="svg8"
   inkscape:version="0.92.2 (5c3e80d, 2017-08-06)"
   sodipodi:docname="financial-details.svg">
  <defs
     id="defs2" />
  <sodipodi:namedview
     id="base"
     pagecolor="#ffffff"
     bordercolor="#666666"
     borderopacity="1.0"
     inkscape:pageopacity="0.0"
     inkscape:pageshadow="2"
     inkscape:zoom="0.061871844"
     inkscape:cx="-4287.7436"
     inkscape:cy="1212.2355"
     inkscape:document-units="mm"
     inkscape:current-layer="layer1"
     showgrid="false"
     units="px"
     inkscape:window-width="1600"
     inkscape:window-height="837"
     inkscape:window-x="-8"
     inkscape:window-y="-8"
     inkscape:window-maximized="1" />
  <metadata
     id="metadata5">
    <rdf:RDF>
      <cc:Work
         rdf:about="">
        <dc:format>image/svg+xml</dc:format>
        <dc:type
           rdf:resource="http://purl.org/dc/dcmitype/StillImage" />
        <dc:title />
      </cc:Work>
    </rdf:RDF>
  </metadata>
  <g
     inkscape:label="Layer 1"
     inkscape:groupmode="layer"
     id="layer1"
     transform="translate(0,-286.41665)">
    <g
       transform="matrix(0.11372167,0,0,0.11372167,-0.39599712,263.61963)"
       id="layer1-3"
       inkscape:label="Layer 1"
       style="fill:#373737;fill-opacity:1;stroke-width:8.79339886">
      <rect
         ry="2.8636868"
         y="203.86673"
         x="27.845495"
         height="13.687639"
         width="60.701702"
         id="rect4518"
         style="opacity:1;vector-effect:none;fill:#373737;fill-opacity:1;fill-rule:nonzero;stroke:none;stroke-width:2.47190356;stroke-linecap:butt;stroke-linejoin:miter;stroke-miterlimit:4;stroke-dasharray:9.88761615, 2.47190418;stroke-dashoffset:0;stroke-opacity:1;paint-order:stroke fill markers" />
      <path
         inkscape:connector-curvature="0"
         id="rect4520"
         d="m 49.7995,222.01715 a 35.409325,35.409325 0 0 1 17.595763,13.68762 h 10.551468 c 1.586487,0 2.863972,-1.27752 2.863972,-2.86399 v -7.96022 c 0,-1.58647 -1.277485,-2.86341 -2.863972,-2.86341 z"
         style="opacity:1;vector-effect:none;fill:#373737;fill-opacity:1;fill-rule:nonzero;stroke:none;stroke-width:2.30901384;stroke-linecap:butt;stroke-linejoin:miter;stroke-miterlimit:4;stroke-dasharray:9.23605518, 2.30901376;stroke-dashoffset:0;stroke-opacity:1;paint-order:stroke fill markers" />
      <path
         inkscape:connector-curvature="0"
         id="rect4522"
         d="m 69.915191,240.16698 a 35.409325,35.409325 0 0 1 3.403626,13.68813 h 18.316064 c 1.586488,0 2.863396,-1.27748 2.863396,-2.86395 v -7.96023 c 0,-1.58649 -1.276908,-2.86395 -2.863396,-2.86395 z"
         style="opacity:1;vector-effect:none;fill:#373737;fill-opacity:1;fill-rule:nonzero;stroke:none;stroke-width:2.59024262;stroke-linecap:butt;stroke-linejoin:miter;stroke-miterlimit:4;stroke-dasharray:10.36097239, 2.59024334;stroke-dashoffset:0;stroke-opacity:1;paint-order:stroke fill markers" />
      <path
         inkscape:connector-curvature="0"
         id="rect4524"
         d="m 73.223314,258.31733 a 35.409325,35.409325 0 0 1 -4.033613,13.68761 h 12.625524 c 1.586481,0 2.863969,-1.27694 2.863969,-2.86343 v -7.9602 c 0,-1.5865 -1.277488,-2.86398 -2.863969,-2.86398 z"
         style="opacity:1;vector-effect:none;fill:#373737;fill-opacity:1;fill-rule:nonzero;stroke:none;stroke-width:2.39184546;stroke-linecap:butt;stroke-linejoin:miter;stroke-miterlimit:4;stroke-dasharray:9.56738396, 2.39184589;stroke-dashoffset:0;stroke-opacity:1;paint-order:stroke fill markers" />
      <path
         inkscape:connector-curvature="0"
         id="rect4526"
         d="M 66.328031,276.46771 A 35.409325,35.409325 0 0 1 44.350015,290.15529 H 89.55163 c 1.586481,0 2.863976,-1.27691 2.863976,-2.8634 v -7.96078 c 0,-1.58646 -1.277495,-2.8634 -2.863976,-2.8634 z m -37.394443,13.07084 c 0.487671,0.38525 1.102857,0.61674 1.775451,0.61674 h 0.930879 a 35.409325,35.409325 0 0 1 -2.70633,-0.61674 z"
         style="opacity:1;vector-effect:none;fill:#373737;fill-opacity:1;fill-rule:nonzero;stroke:none;stroke-width:2.54944897;stroke-linecap:butt;stroke-linejoin:miter;stroke-miterlimit:4;stroke-dasharray:10.19779741, 2.54944912;stroke-dashoffset:0;stroke-opacity:1;paint-order:stroke fill markers" />
      <path
         inkscape:connector-curvature="0"
         id="path4530"
         d="M 37.962173,223.46988 A 31.874522,31.874522 0 0 0 6.0879774,255.34405 31.874522,31.874522 0 0 0 37.962173,287.21883 31.874522,31.874522 0 0 0 69.836939,255.34405 31.874522,31.874522 0 0 0 37.962173,223.46988 Z m 0,8.00047 a 23.873477,23.873477 0 0 1 23.873714,23.8737 23.873477,23.873477 0 0 1 -23.873714,23.87372 23.873477,23.873477 0 0 1 -23.873143,-23.87372 23.873477,23.873477 0 0 1 23.873143,-23.8737 z"
         style="opacity:1;vector-effect:none;fill:#373737;fill-opacity:1;fill-rule:nonzero;stroke:none;stroke-width:2.33166695;stroke-linecap:butt;stroke-linejoin:miter;stroke-miterlimit:4;stroke-dasharray:9.32667, 2.33166783;stroke-dashoffset:0;stroke-opacity:1;paint-order:stroke fill markers" />
      <path
         inkscape:connector-curvature="0"
         id="circle4546"
         d="M 37.962173,232.7395 A 22.604451,22.604451 0 0 0 15.358202,255.34405 22.604451,22.604451 0 0 0 37.962173,277.94862 22.604451,22.604451 0 0 0 60.566722,255.34405 22.604451,22.604451 0 0 0 37.962173,232.7395 Z m -2.35481,4.3 h 5.207272 v 4.19528 c 1.63771,0.36177 3.0204,1.0798 4.144646,2.1586 1.690817,1.60542 2.501946,3.61212 2.433633,6.02023 l -0.05128,0.15331 h -4.99545 c 0,-1.31508 -0.37559,-2.44247 -1.127062,-3.38179 -0.734394,-0.95641 -1.759467,-1.43425 -3.07454,-1.43425 -1.297998,0 -2.314258,0.36668 -3.048652,1.10119 -0.717315,0.73435 -1.075859,1.59718 -1.075859,2.58781 0,1.05888 0.307408,1.89528 0.922248,2.5101 0.631921,0.61488 1.981445,1.41774 4.04799,2.40831 2.903415,1.04185 5.055261,2.22915 6.455732,3.56132 1.417549,1.31501 2.126401,3.00548 2.126401,5.072 0,2.28858 -0.87108,4.15009 -2.613129,5.58476 -1.144913,0.94282 -2.527591,1.57421 -4.144646,1.89737 v 4.1746 h -5.207268 v -4.13833 c -1.90695,-0.35468 -3.487626,-1.14268 -4.738385,-2.36921 -1.759124,-1.74201 -2.596119,-3.77395 -2.510724,-6.09669 l 0.05183,-0.15459 h 4.841368 c 0.06831,1.7933 0.563809,3.09163 1.486067,3.89439 0.922261,0.7856 2.066654,1.17829 3.432968,1.17829 1.349233,0 2.399586,-0.3416 3.151061,-1.02467 0.768547,-0.70029 1.15295,-1.59721 1.15295,-2.69025 0,-1.07597 -0.359121,-1.98114 -1.076433,-2.71552 -0.700237,-0.75151 -2.032142,-1.57084 -3.996211,-2.45895 -2.85218,-1.1101 -4.969934,-2.28861 -6.353323,-3.53537 -1.366315,-1.26385 -2.04931,-2.89493 -2.04931,-4.89313 0,-2.13487 0.836411,-3.94522 2.510143,-5.43108 1.131998,-1.00625 2.499076,-1.67421 4.098049,-2.00673 z"
         style="opacity:1;vector-effect:none;fill:#373737;fill-opacity:1;fill-rule:nonzero;stroke:none;stroke-width:1.65354645;stroke-linecap:butt;stroke-linejoin:miter;stroke-miterlimit:4;stroke-dasharray:6.61418634, 1.65354699;stroke-dashoffset:0;stroke-opacity:1;paint-order:stroke fill markers" />
    </g>
  </g>
  <style
     id="style3952"
     type="text/css">
	.st0{fill:#4D4D4D;}
</style>
</svg>
