<?xml version="1.0" encoding="UTF-8" standalone="no"?>
<!-- Created with Inkscape (http://www.inkscape.org/) -->

<svg
   xmlns:dc="http://purl.org/dc/elements/1.1/"
   xmlns:cc="http://creativecommons.org/ns#"
   xmlns:rdf="http://www.w3.org/1999/02/22-rdf-syntax-ns#"
   xmlns:svg="http://www.w3.org/2000/svg"
   xmlns="http://www.w3.org/2000/svg"
   xmlns:sodipodi="http://sodipodi.sourceforge.net/DTD/sodipodi-0.dtd"
   xmlns:inkscape="http://www.inkscape.org/namespaces/inkscape"
   width="144"
   height="144"
   viewBox="0 0 38.099998 38.099998"
   version="1.1"
   id="svg4556"
   inkscape:version="0.92.1 r15371"
   sodipodi:docname="pm-tool-icon2.svg">
  <defs
     id="defs4550" />
  <sodipodi:namedview
     id="base"
     pagecolor="#ffffff"
     bordercolor="#666666"
     borderopacity="1.0"
     inkscape:pageopacity="0.0"
     inkscape:pageshadow="2"
     inkscape:zoom="3.959798"
     inkscape:cx="22.125174"
     inkscape:cy="72.645158"
     inkscape:document-units="mm"
     inkscape:current-layer="layer1"
     showgrid="false"
     inkscape:window-width="1920"
     inkscape:window-height="1027"
     inkscape:window-x="-8"
     inkscape:window-y="-8"
     inkscape:window-maximized="1"
     units="px" />
  <metadata
     id="metadata4553">
    <rdf:RDF>
      <cc:Work
         rdf:about="">
        <dc:format>image/svg+xml</dc:format>
        <dc:type
           rdf:resource="http://purl.org/dc/dcmitype/StillImage" />
        <dc:title></dc:title>
      </cc:Work>
    </rdf:RDF>
  </metadata>
  <g
     inkscape:label="Layer 1"
     inkscape:groupmode="layer"
     id="layer1"
     transform="translate(0,-258.9)">
    <g
       transform="matrix(0.41443739,0,0,0.41443739,-2.01694,175.43474)"
       id="layer1-4"
       inkscape:label="Layer 1">
      <g
         id="g7564"
         transform="matrix(4.8456207,0,0,4.8456207,2207.2507,-1951.4693)"
         style="fill:#4d4d4d;fill-opacity:1">
        <path
           id="path7560"
           d="m -447.47888,454.39781 a 3.0839055,3.0839055 0 0 0 -1.78914,2.79513 3.0839055,3.0839055 0 0 0 0.21249,1.11612 10.47929,6.9163319 0 0 0 3.79958,0.47074 10.47929,6.9163319 0 0 0 3.80595,-0.47974 3.0839055,3.0839055 0 0 0 0.20612,-1.10712 3.0839055,3.0839055 0 0 0 -1.78908,-2.79495 3.3239043,3.3239043 0 0 1 -2.22299,0.85773 3.3239043,3.3239043 0 0 1 -2.22293,-0.85791 z"
           style="opacity:1;vector-effect:none;fill:#4d4d4d;fill-opacity:1;fill-rule:nonzero;stroke:none;stroke-width:0.64259154;stroke-linecap:round;stroke-linejoin:round;stroke-miterlimit:4;stroke-dasharray:none;stroke-dashoffset:0;stroke-opacity:1;paint-order:normal"
           inkscape:connector-curvature="0" />
        <circle
           transform="scale(1,-1)"
           id="circle7562"
           style="opacity:1;vector-effect:none;fill:#4d4d4d;fill-opacity:1;fill-rule:nonzero;stroke:none;stroke-width:0.4741452;stroke-linecap:round;stroke-linejoin:round;stroke-miterlimit:4;stroke-dasharray:none;stroke-dashoffset:0;stroke-opacity:1;paint-order:normal"
           r="2.9639909"
           cy="-451.14847"
           cx="-445.16415" />
      </g>
      <path
         style="color:#000000;font-style:normal;font-variant:normal;font-weight:normal;font-stretch:normal;font-size:medium;line-height:normal;font-family:sans-serif;font-variant-ligatures:normal;font-variant-position:normal;font-variant-caps:normal;font-variant-numeric:normal;font-variant-alternates:normal;font-feature-settings:normal;text-indent:0;text-align:start;text-decoration:none;text-decoration-line:none;text-decoration-style:solid;text-decoration-color:#000000;letter-spacing:normal;word-spacing:normal;text-transform:none;writing-mode:lr-tb;direction:ltr;text-orientation:mixed;dominant-baseline:auto;baseline-shift:baseline;text-anchor:start;white-space:normal;shape-padding:0;clip-rule:nonzero;display:inline;overflow:visible;visibility:visible;opacity:1;isolation:auto;mix-blend-mode:normal;color-interpolation:sRGB;color-interpolation-filters:linearRGB;solid-color:#000000;solid-opacity:1;vector-effect:none;fill:#4d4d4d;fill-opacity:1;fill-rule:nonzero;stroke:none;stroke-width:5.3262949;stroke-linecap:round;stroke-linejoin:round;stroke-miterlimit:4;stroke-dasharray:none;stroke-dashoffset:0;stroke-opacity:1;paint-order:normal;color-rendering:auto;image-rendering:auto;shape-rendering:auto;text-rendering:auto;enable-background:accumulate"
         d="m 91.472492,257.14928 a 2.6634139,2.6634139 0 0 0 -2.505882,1.92483 c -4.570371,15.0469 -17.542164,25.99141 -33.143691,27.96426 a 2.6634139,2.6634139 0 1 0 0.668289,5.28469 c 17.67162,-2.23477 32.394768,-14.65812 37.571598,-31.70148 a 2.6634139,2.6634139 0 0 0 -2.590314,-3.4721 z"
         id="path7566"
         inkscape:connector-curvature="0" />
      <path
         style="color:#000000;font-style:normal;font-variant:normal;font-weight:normal;font-stretch:normal;font-size:medium;line-height:normal;font-family:sans-serif;font-variant-ligatures:normal;font-variant-position:normal;font-variant-caps:normal;font-variant-numeric:normal;font-variant-alternates:normal;font-feature-settings:normal;text-indent:0;text-align:start;text-decoration:none;text-decoration-line:none;text-decoration-style:solid;text-decoration-color:#000000;letter-spacing:normal;word-spacing:normal;text-transform:none;writing-mode:lr-tb;direction:ltr;text-orientation:mixed;dominant-baseline:auto;baseline-shift:baseline;text-anchor:start;white-space:normal;shape-padding:0;clip-rule:nonzero;display:inline;overflow:visible;visibility:visible;opacity:1;isolation:auto;mix-blend-mode:normal;color-interpolation:sRGB;color-interpolation-filters:linearRGB;solid-color:#000000;solid-opacity:1;vector-effect:none;fill:#9db63a;fill-opacity:1;fill-rule:nonzero;stroke:none;stroke-width:5.3262949;stroke-linecap:round;stroke-linejoin:round;stroke-miterlimit:4;stroke-dasharray:none;stroke-dashoffset:0;stroke-opacity:1;paint-order:normal;color-rendering:auto;image-rendering:auto;shape-rendering:auto;text-rendering:auto;enable-background:accumulate"
         d="M 52.916667,202.34665 C 41.802471,201.83443 30.628854,205.42818 21.750824,212.8876 7.545899,224.82235 2.0773446,244.25012 7.9706886,261.84231 13.864229,279.43469 29.932357,291.64876 48.460146,292.61819 a 2.6635845,2.6635845 0 1 0 0.278122,-5.3199 C 32.378811,286.44191 18.22491,275.68407 13.021262,260.15058 7.8174169,244.61708 12.635099,227.5035 25.177108,216.96535 37.719512,206.42722 55.408139,204.63264 69.811951,212.4362 84.21596,220.23997 92.37268,236.03678 90.39543,252.299 a 2.6634139,2.6634139 0 1 0 5.287278,0.64227 C 97.922073,234.52373 88.661882,216.5902 72.349046,207.75238 66.231609,204.43816 59.58494,202.65378 52.91647,202.34665 Z"
         id="path7568"
         inkscape:connector-curvature="0" />
    </g>
  </g>
</svg>
