<?xml version="1.0" encoding="UTF-8" standalone="no"?>
<!-- Created with Inkscape (http://www.inkscape.org/) -->

<svg
   xmlns:dc="http://purl.org/dc/elements/1.1/"
   xmlns:cc="http://creativecommons.org/ns#"
   xmlns:rdf="http://www.w3.org/1999/02/22-rdf-syntax-ns#"
   xmlns:svg="http://www.w3.org/2000/svg"
   xmlns="http://www.w3.org/2000/svg"
   xmlns:sodipodi="http://sodipodi.sourceforge.net/DTD/sodipodi-0.dtd"
   xmlns:inkscape="http://www.inkscape.org/namespaces/inkscape"
   width="10cm"
   height="10cm"
   viewBox="0 0 100 99.999997"
   version="1.1"
   id="svg6913"
   inkscape:version="0.92.1 r15371"
   sodipodi:docname="edit-icon-btn.svg">
  <defs
     id="defs6907" />
  <sodipodi:namedview
     id="base"
     pagecolor="#ffffff"
     bordercolor="#666666"
     borderopacity="1.0"
     inkscape:pageopacity="0.0"
     inkscape:pageshadow="2"
     inkscape:zoom="1.7482473"
     inkscape:cx="60.143838"
     inkscape:cy="207.73607"
     inkscape:document-units="mm"
     inkscape:current-layer="layer1"
     showgrid="false"
     units="cm"
     showguides="true"
     inkscape:guide-bbox="true"
     inkscape:window-width="1920"
     inkscape:window-height="1017"
     inkscape:window-x="-8"
     inkscape:window-y="-8"
     inkscape:window-maximized="1">
    <sodipodi:guide
       position="49.979401,32.874151"
       orientation="1,0"
       id="guide7481"
       inkscape:locked="false" />
    <sodipodi:guide
       position="72.162772,49.9794"
       orientation="0,1"
       id="guide7483"
       inkscape:locked="false" />
    <sodipodi:guide
       position="100.87239,94.801151"
       orientation="0,1"
       id="guide7485"
       inkscape:locked="false" />
    <sodipodi:guide
       position="94.824775,101.51023"
       orientation="1,0"
       id="guide7487"
       inkscape:locked="false" />
    <sodipodi:guide
       position="101.44549,5.2117557"
       orientation="0,1"
       id="guide7489"
       inkscape:locked="false" />
    <sodipodi:guide
       position="5.1971725,103.84896"
       orientation="1,0"
       id="guide7491"
       inkscape:locked="false" />
    <inkscape:grid
       type="xygrid"
       id="grid7493" />
  </sodipodi:namedview>
  <metadata
     id="metadata6910">
    <rdf:RDF>
      <cc:Work
         rdf:about="">
        <dc:format>image/svg+xml</dc:format>
        <dc:type
           rdf:resource="http://purl.org/dc/dcmitype/StillImage" />
        <dc:title></dc:title>
      </cc:Work>
    </rdf:RDF>
  </metadata>
  <g
     inkscape:label="Layer 1"
     inkscape:groupmode="layer"
     id="layer1"
     transform="translate(0,-197.00002)">
    <path
       style="fill:#d1d0d1;fill-opacity:1;stroke-width:0.50095075"
       d="m 33.794833,268.68322 c -0.883084,-0.25524 -1.953876,-0.96146 -2.379511,-1.56913 -0.902372,-1.28834 -1.045527,-6.10382 -0.244925,-8.23834 0.89138,-2.3765 3.02667,-5.11591 4.881025,-6.26194 1.510672,-0.93367 1.63136,-1.13677 0.840271,-1.41427 -0.701301,-0.24596 -0.767285,-0.4207 -0.274039,-0.72557 1.599947,-0.98882 2.65038,-4.91395 3.046466,-11.38368 0.337509,-5.51291 0.59311,-6.86183 1.747093,-9.2205 3.636601,-7.43294 13.537333,-7.55008 17.284762,-0.20446 1.138037,2.23072 1.993494,7.07325 1.998744,11.3145 0.0049,3.71526 1.059229,7.42877 2.564883,9.03148 l 1.120208,1.19238 h -1.128185 c -0.960849,0 -0.807471,0.2446 1.034119,1.64923 3.579377,2.73007 5.430454,6.2731 5.419698,10.37357 -0.0055,2.46538 -0.97137,4.11527 -3.002499,5.13398 -1.551123,0.77796 -3.398582,0.87091 -16.524405,0.83149 -8.127922,-0.0246 -15.500589,-0.25333 -16.383705,-0.50869 z m 17.77207,-11.96566 c 0.625841,-1.09597 1.865703,-2.36127 2.755231,-2.81181 3.407704,-1.72591 4.452068,-3.47549 1.846289,-3.09306 -1.125134,0.16516 -1.457245,0.0489 -1.268103,-0.44409 0.331148,-0.86295 -0.213531,-0.82519 -1.436116,0.0996 -1.399003,1.05815 -5.222985,0.92499 -7.14826,-0.24897 l -1.60832,-0.98063 0.481177,1.2656 c 0.264662,0.69609 0.48119,1.32459 0.48119,1.39672 0,0.0721 -0.732653,0.0442 -1.6281,-0.0617 -1.577608,-0.18672 -1.597012,-0.16707 -0.626193,0.6371 0.551051,0.45641 1.611156,1.05139 2.355793,1.32216 0.778087,0.28293 1.905584,1.43368 2.651098,2.70583 0.713484,1.21745 1.456803,2.21181 1.651837,2.20968 0.195022,-0.002 0.866646,-0.90053 1.492477,-1.9965 z m 1.616318,-7.76768 c 2.845257,-1.47135 5.511484,-6.47806 5.511484,-10.34963 0,-1.24062 -0.188771,-1.42322 -1.471369,-1.42322 -1.391212,0 -1.456418,-0.092 -1.197164,-1.68966 0.150853,-0.92931 0.04709,-1.82998 -0.230375,-2.00147 -0.277506,-0.17144 -2.031052,0.58015 -3.896745,1.67041 -1.8657,1.09026 -4.932201,2.37901 -6.814431,2.86387 -3.097016,0.79783 -3.421771,1.00197 -3.417337,2.14825 0.0079,2.03534 2.18829,6.1493 4.191238,7.90791 2.105376,1.84854 4.81449,2.17162 7.324707,0.87354 z M 9.1654052,263.73256 c -2.332046,-0.55835 -3.597124,-1.99036 -3.92626,-4.44425 -0.557706,-4.15799 2.750993,-9.14831 6.9939548,-10.54861 1.645119,-0.54294 1.857683,-0.484 3.24022,0.89854 2.685128,2.68514 8.91906,2.54785 11.115742,-0.24487 0.939652,-1.19457 1.13647,-1.24359 2.794807,-0.69628 0.981198,0.32382 2.457866,1.15578 3.281479,1.84881 l 1.497481,1.26006 -1.572881,1.7914 c -1.952617,2.22392 -2.988137,4.62889 -3.39101,7.87568 l -0.310815,2.50474 -9.017106,0.0794 c -4.959408,0.0437 -9.776931,-0.10237 -10.7056118,-0.3248 z m 62.0530728,-1.16828 c 0,-2.67586 -1.430429,-6.12776 -3.5255,-8.50795 l -1.947436,-2.21237 1.108377,-1.01298 c 2.306773,-2.10828 6.368349,-3.44415 6.368349,-2.09458 0,0.29616 1.07079,2.15595 2.37952,4.13285 l 2.3795,3.59437 0.15943,-1.94457 c 0.0879,-1.06954 -0.0813,-2.18541 -0.37572,-2.47971 -0.94085,-0.94086 -0.58763,-1.23159 1.71917,-1.41506 2.4611,-0.19574 2.5642,-0.12885 1.60749,1.04084 -0.40896,0.50012 -0.5471,1.52764 -0.37569,2.79469 l 0.27108,2.00381 2.04105,-3.25617 c 1.12255,-1.79091 2.19682,-3.67818 2.38723,-4.19394 0.27827,-0.75383 0.66235,-0.87449 1.95836,-0.61529 4.55824,0.91165 8.27808,6.03285 7.75473,10.6761 -0.50682,4.49625 -2.3433,5.12505 -15.01805,5.14208 L 71.2185,264.2273 Z M 19.390943,248.83443 c -3.52921,-0.89647 -5.869078,-4.7272 -6.166864,-10.09605 -0.18757,-3.38145 -0.0778,-4.00992 0.963369,-5.5229 3.441292,-5.00016 9.264253,-5.34745 12.756075,-0.76085 1.307233,1.7171 1.440394,2.25467 1.409079,5.68885 -0.04876,5.35098 -2.149158,9.10686 -5.884206,10.52203 -1.483239,0.56197 -1.521692,0.5641 -3.077453,0.16897 z m 5.249897,-3.03418 c 1.994368,-1.99437 3.619244,-6.16085 2.542623,-6.51972 -0.302299,-0.10073 -0.553063,-1.00978 -0.557278,-2.02002 -0.0087,-2.21416 -0.634912,-3.3704 -1.525808,-2.81981 -1.428918,0.88312 -4.725537,1.11259 -7.107433,0.49474 -2.424821,-0.62899 -2.459108,-0.62135 -2.945428,0.65779 -0.27064,0.71182 -0.362528,1.81021 -0.20425,2.4409 0.158907,0.63305 0.05921,1.14668 -0.222703,1.14668 -1.524419,0 0.243232,4.90964 2.540172,7.05532 2.365528,2.20973 4.987263,2.05697 7.480088,-0.43588 z m 52.080288,2.46997 c -4.6307,-2.46617 -6.72509,-11.38169 -3.64338,-15.50929 1.81411,-2.42981 3.54772,-3.34864 6.31789,-3.34864 3.14403,0 5.39542,1.4042 6.8627,4.28032 2.44229,4.78725 -0.20966,12.88246 -4.85612,14.82393 -2.12836,0.88925 -2.59495,0.86471 -4.68109,-0.24624 z m 6.53096,-2.46997 c 1.99437,-1.99437 3.61925,-6.16085 2.54261,-6.51972 -0.30228,-0.10073 -0.54957,-1.03852 -0.54957,-2.08393 0,-1.79198 -0.9746,-3.38658 -1.65437,-2.70681 -0.79516,0.79513 -4.68313,1.04317 -6.98658,0.44565 -2.43074,-0.63052 -2.45796,-0.6243 -2.95237,0.67603 -0.2744,0.72183 -0.40189,1.82023 -0.28322,2.44089 0.11875,0.62067 0.0218,1.12845 -0.21566,1.12845 -1.45391,0 0.39343,4.97616 2.61918,7.05532 2.36552,2.20973 4.98725,2.05697 7.48009,-0.43588 z"
       id="path5808"
       inkscape:connector-curvature="0" />
  </g>
</svg>
