<?xml version="1.0" encoding="UTF-8" standalone="no"?>
<!-- Created with Inkscape (http://www.inkscape.org/) -->

<svg
   xmlns:dc="http://purl.org/dc/elements/1.1/"
   xmlns:cc="http://creativecommons.org/ns#"
   xmlns:rdf="http://www.w3.org/1999/02/22-rdf-syntax-ns#"
   xmlns:svg="http://www.w3.org/2000/svg"
   xmlns="http://www.w3.org/2000/svg"
   xmlns:sodipodi="http://sodipodi.sourceforge.net/DTD/sodipodi-0.dtd"
   xmlns:inkscape="http://www.inkscape.org/namespaces/inkscape"
   width="32mm"
   height="32mm"
   viewBox="0 0 32 32"
   version="1.1"
   id="svg8"
   inkscape:version="0.92.3 (2405546, 2018-03-11)"
   sodipodi:docname="TXT.svg">
  <defs
     id="defs2">
    <pattern
       y="0"
       x="0"
       height="6"
       width="6"
       patternUnits="userSpaceOnUse"
       id="EMFhbasepattern" />
  </defs>
  <sodipodi:namedview
     id="base"
     pagecolor="#ffffff"
     bordercolor="#666666"
     borderopacity="1.0"
     inkscape:pageopacity="0.0"
     inkscape:pageshadow="2"
     inkscape:zoom="3.959798"
     inkscape:cx="115.61515"
     inkscape:cy="47.134868"
     inkscape:document-units="mm"
     inkscape:current-layer="layer1"
     showgrid="false"
     inkscape:window-width="1920"
     inkscape:window-height="1027"
     inkscape:window-x="-8"
     inkscape:window-y="-8"
     inkscape:window-maximized="1" />
  <metadata
     id="metadata5">
    <rdf:RDF>
      <cc:Work
         rdf:about="">
        <dc:format>image/svg+xml</dc:format>
        <dc:type
           rdf:resource="http://purl.org/dc/dcmitype/StillImage" />
        <dc:title></dc:title>
      </cc:Work>
    </rdf:RDF>
  </metadata>
  <g
     inkscape:label="Layer 1"
     inkscape:groupmode="layer"
     id="layer1"
     transform="translate(0,-265)">
    <g
       id="g1136"
       transform="translate(-43.65625,-2.4763346)">
      <path
         id="path986"
         transform="matrix(0.26458333,0,0,0.26458333,0,265)"
         d="m 184.30859,12.625 c -4.39923,0 -7.9414,3.540234 -7.9414,7.939453 v 99.744137 c 0,4.39922 3.54217,7.94141 7.9414,7.94141 h 82.92188 c 4.39921,0 7.94141,-3.54219 7.94141,-7.94141 V 20.564453 c 0,-4.399219 -3.5422,-7.939453 -7.94141,-7.939453 z m 11.77344,9.941406 h 17.94141 v 4.716797 h -6.01953 v 14.384766 h -5.90235 V 27.283203 h -6.01953 z m 19.30859,0 h 6.50196 l 3.38867,5.875 3.2832,-5.875 H 235 l -5.94141,9.25 6.50196,9.851563 h -6.63086 l -3.76563,-6.138672 -3.77929,6.138672 h -6.59375 l 6.59375,-9.955078 z m 20.7168,0 h 17.94141 v 4.716797 h -6.01953 v 14.384766 h -5.90235 V 27.283203 h -6.01953 z m -53.8789,27.236328 h 87.08203 v 71.587886 h -87.08203 z"
         style="opacity:1;fill:#0c6ecd;fill-opacity:1;stroke:none;stroke-width:3.03195643;stroke-miterlimit:4;stroke-dasharray:none;stroke-dashoffset:9.97795296;stroke-opacity:1"
         inkscape:connector-curvature="0" />
      <rect
         style="opacity:1;fill:#0c6ecd;fill-opacity:1;stroke:none;stroke-width:1.60437953;stroke-miterlimit:4;stroke-dasharray:none;stroke-dashoffset:9.97795296;stroke-opacity:1"
         id="rect996"
         width="17.647839"
         height="2.941417"
         x="50.910824"
         y="280.98953" />
      <rect
         y="285.52582"
         x="50.910824"
         height="2.941417"
         width="17.647839"
         id="rect998"
         style="opacity:1;fill:#0c6ecd;fill-opacity:1;stroke:none;stroke-width:1.60437953;stroke-miterlimit:4;stroke-dasharray:none;stroke-dashoffset:9.97795296;stroke-opacity:1" />
      <rect
         style="opacity:1;fill:#0c6ecd;fill-opacity:1;stroke:none;stroke-width:1.60437953;stroke-miterlimit:4;stroke-dasharray:none;stroke-dashoffset:9.97795296;stroke-opacity:1"
         id="rect1000"
         width="17.647839"
         height="2.941417"
         x="50.910824"
         y="290.0621" />
    </g>
  </g>
</svg>
