<svg xmlns="http://www.w3.org/2000/svg" width="476.422" height="394.885" viewBox="0 0 476.422 394.885">
  <g id="Group_2789" fill="white" data-name="Group 2789" transform="translate(-314.195 -305.807)">
    <path id="Path_946" data-name="Path 946" d="M552.392,700.664q-82.742,0-165.481-.027a72.241,72.241,0,0,1-70.941-56.326,69,69,0,0,1-1.661-15.339q-.157-107.236-.023-214.473A71.931,71.931,0,0,1,371.4,344.293a70.983,70.983,0,0,1,14.37-1.479q34.494-.228,68.991.007c3.446.024,5.4-.994,7.045-4.042,3.163-5.852,6.684-11.52,10.245-17.145,6.575-10.386,16.162-15.7,28.4-15.743q50.994-.168,101.988,0c12.477.041,22.034,5.7,28.624,16.262,3.525,5.648,7.016,11.329,10.21,17.167,1.5,2.744,3.353,3.5,6.356,3.489q34.5-.177,68.991-.054c41.869.117,73.809,31.818,73.9,73.731q.225,105.737,0,211.473c-.074,40.951-32.043,72.632-73.143,72.687Q634.883,700.756,552.392,700.664ZM672.05,520.909c.421-67.078-52.679-120.474-120.286-120.958-65.989-.472-120.813,53.925-121.07,120.128-.262,67.411,52.432,120.617,120.012,121.177C618.1,641.814,671.625,588.733,672.05,520.909Zm2.149-104.65a18.152,18.152,0,0,0,18.191,18.479A18.419,18.419,0,1,0,674.2,416.259Z"/>
    <path id="Path_947" data-name="Path 947" d="M371.69,332.267c.37-11.531,8.247-19.79,19.681-20.169,11.809-.392,23.65-.388,35.46-.015,10.73.339,19.587,9.577,19.838,20.184Z"/>
    <path id="Path_948" data-name="Path 948" d="M551.677,426.654a93.827,93.827,0,0,1,93.728,94.788c-.217,51.7-42.823,93.6-94.835,93.275-52.186-.329-93.517-42.845-93.207-95.881C457.659,468.089,500.273,426.439,551.677,426.654Z"/>
  </g>
</svg>
